<svg width="25" height="25" viewBox="0 0 25 25" fill="none" xmlns="http://www.w3.org/2000/svg">
<path d="M12.213 0.437927C8.89514 0.437927 8.48041 0.453203 7.17769 0.511758C5.87751 0.570314 4.98953 0.77653 4.21349 1.07949C3.40947 1.39263 2.73012 1.81016 2.05077 2.48737C1.37142 3.16712 0.954142 3.84941 0.641183 4.65137C0.338402 5.42786 0.132308 6.31638 0.0737872 7.61733C0.0152665 8.92082 0 9.33834 0 12.6556C0 15.9729 0.0152665 16.3904 0.0737872 17.6939C0.134852 18.9949 0.338402 19.8834 0.641183 20.6599C0.954142 21.4644 1.37142 22.1441 2.05077 22.8239C2.73012 23.5037 3.40947 23.9212 4.21349 24.2343C4.98953 24.5373 5.87751 24.7435 7.17769 24.8021C8.48041 24.8606 8.89769 24.8759 12.213 24.8759C15.5283 24.8759 15.9456 24.8606 17.2483 24.8021C18.5485 24.7435 19.4365 24.5373 20.2151 24.2343C21.0191 23.9212 21.6985 23.5037 22.3778 22.8239C23.0571 22.1441 23.4744 21.4619 23.7874 20.6599C24.0876 19.8834 24.2937 18.9949 24.3548 17.6939C24.4133 16.3904 24.4286 15.9755 24.4286 12.6556C24.4286 9.3358 24.4133 8.92082 24.3548 7.61733C24.2937 6.31638 24.0876 5.42786 23.7874 4.65137C23.4744 3.84687 23.0571 3.16712 22.3778 2.48737C21.6985 1.80761 21.0191 1.39009 20.2151 1.07949C19.4365 0.77653 18.5485 0.570314 17.2483 0.511758C15.9456 0.453203 15.5309 0.437927 12.213 0.437927ZM11.1164 2.64012C11.4421 2.64012 11.8034 2.64012 12.213 2.64012C15.4749 2.64012 15.8591 2.65285 17.1491 2.7114C18.3399 2.76487 18.9861 2.96599 19.4161 3.13147C19.9861 3.35297 20.3932 3.61774 20.8206 4.04545C21.2481 4.47316 21.5127 4.8805 21.7341 5.45078C21.902 5.88103 22.1005 6.52769 22.1539 7.71916C22.2124 9.00738 22.2251 9.39435 22.2251 12.6556C22.2251 15.9169 22.2124 16.3039 22.1539 17.5921C22.1005 18.7836 21.8995 19.4302 21.7341 19.8605C21.5127 20.4308 21.2481 20.8356 20.8206 21.2633C20.3932 21.691 19.9861 21.9558 19.4161 22.1772C18.9861 22.3453 18.3399 22.5439 17.1491 22.5973C15.8617 22.6559 15.4749 22.6686 12.213 22.6686C8.95112 22.6686 8.56437 22.6559 7.27692 22.5973C6.08615 22.5413 5.43988 22.3427 5.00988 22.1772C4.43994 21.9558 4.03284 21.691 3.60538 21.2633C3.17793 20.8356 2.91331 20.4282 2.69195 19.8579C2.52402 19.4277 2.32556 18.781 2.27213 17.5896C2.21361 16.3013 2.20089 15.9144 2.20089 12.6505C2.20089 9.38672 2.21361 9.00229 2.27213 7.71407C2.32556 6.52259 2.52657 5.87594 2.69195 5.44568C2.91331 4.87541 3.17793 4.46806 3.60538 4.04036C4.03284 3.61265 4.43994 3.34787 5.00988 3.12638C5.43988 2.95835 6.08615 2.75977 7.27692 2.70377C8.40408 2.65285 8.83917 2.63757 11.1164 2.63503V2.64012ZM18.7317 4.67174C17.9226 4.67174 17.2661 5.32857 17.2661 6.13817C17.2661 6.94776 17.9226 7.6046 18.7317 7.6046C19.5408 7.6046 20.1973 6.94776 20.1973 6.13817C20.1973 5.32857 19.5408 4.67174 18.7317 4.67174ZM12.213 6.38512C8.75012 6.38512 5.94112 9.19578 5.94112 12.6607C5.94112 16.1257 8.75012 18.9363 12.213 18.9363C15.6759 18.9363 18.4849 16.1282 18.4849 12.6607C18.4849 9.19323 15.6785 6.38512 12.213 6.38512ZM12.213 8.58731C14.4622 8.58731 16.284 10.4102 16.284 12.6607C16.284 14.9113 14.4622 16.7341 12.213 16.7341C9.96378 16.7341 8.14201 14.9113 8.14201 12.6607C8.14201 10.4102 9.96378 8.58731 12.213 8.58731Z" fill="black"/>
</svg>
