<svg width="18" height="19" viewBox="0 0 18 19" fill="none" xmlns="http://www.w3.org/2000/svg">
<path fill-rule="evenodd" clip-rule="evenodd" d="M4.0869 18.8827V6.73342H0.225926V18.8827H4.0869ZM2.1581 5.07494C3.50354 5.07494 4.33981 4.14336 4.33981 2.97536C4.3162 1.78267 3.50354 0.875793 2.18171 0.875793C0.859868 0.875793 0 1.78267 0 2.97536C0 4.16806 0.836264 5.07494 2.13112 5.07494H2.1581Z" fill="black"/>
<path fill-rule="evenodd" clip-rule="evenodd" d="M6.22149 18.8824H10.0791V12.0968C10.0791 11.7333 10.1027 11.3698 10.2072 11.1123C10.4871 10.3853 11.1211 9.63373 12.1866 9.63373C13.5826 9.63373 14.1424 10.7488 14.1424 12.3826V18.8824H18V11.9168C18 8.18344 16.0948 6.44732 13.5557 6.44732C11.4751 6.44732 10.5613 7.66472 10.0521 8.49396H10.0791V6.73314H6.22149C6.27207 7.87291 6.22149 18.8824 6.22149 18.8824Z" fill="black"/>
</svg>
