<svg width="74" height="73" viewBox="0 0 74 73" fill="none" xmlns="http://www.w3.org/2000/svg">
<path d="M37.0327 0C16.9744 0 0.659668 16.3079 0.659668 36.3636C0.659668 56.4193 16.9744 72.732 37.0327 72.732C57.0911 72.732 73.3916 56.4193 73.3916 36.3636C73.3916 16.3079 57.0911 0 37.0327 0ZM37.0327 4.54101C54.6403 4.54101 68.8642 18.7583 68.8642 36.3636C68.8642 53.9689 54.664 68.1673 37.0754 68.1909L52.6347 40.9685H61.5735L66.7994 32.0333H42.1876L36.9617 40.9685H47.4112L32.072 67.8074C16.83 65.4327 5.19417 52.2785 5.19417 36.3636C5.19417 22.2955 14.2821 10.3889 26.9195 6.17464L12.0729 32.0333L7.12399 40.9685H31.5985L36.8244 32.0333H17.2964L32.9339 4.79908C34.2765 4.62625 35.6452 4.54101 37.0327 4.54101Z" fill="#003F72"/>
</svg>
