<svg width="22" height="19" viewBox="0 0 22 19" fill="none" xmlns="http://www.w3.org/2000/svg">
<path d="M19.6195 5.36553C19.6328 5.56089 19.6328 5.75625 19.6328 5.95341C19.6328 11.961 15.122 18.8897 6.8737 18.8897V18.8861C4.43714 18.8897 2.05119 18.182 0 16.8478C0.354296 16.891 0.710368 16.9126 1.06733 16.9135C3.08655 16.9153 5.04805 16.2284 6.63662 14.9635C4.71773 14.9266 3.03505 13.6581 2.44722 11.8062C3.1194 11.9376 3.81201 11.9106 4.47177 11.7279C2.37973 11.2993 0.874641 9.43573 0.874641 7.27144V7.21382C1.49799 7.56583 2.19593 7.76119 2.90985 7.7828C0.939462 6.44767 0.332097 3.79002 1.52196 1.71215C3.79869 4.55257 7.15785 6.27932 10.7639 6.46208C10.4025 4.88297 10.8962 3.22824 12.0612 2.11818C13.8673 0.396832 16.7079 0.48506 18.4056 2.31535C19.4099 2.11458 20.3725 1.74096 21.2533 1.21159C20.9186 2.26403 20.218 3.15802 19.2821 3.7261C20.1709 3.61987 21.0393 3.37859 21.8571 3.01037C21.2551 3.92506 20.4968 4.72182 19.6195 5.36553Z" fill="black"/>
</svg>
