<svg width="27" height="19" viewBox="0 0 27 19" fill="none" xmlns="http://www.w3.org/2000/svg">
<path d="M13.1538 0.882751C3.80215 0.882751 2.55325 0.976538 1.35487 2.16731C0.156483 3.35877 0 5.25191 0 9.88275C0 14.5136 0.156483 16.4067 1.35487 17.5982C2.55325 18.789 3.80215 18.8828 13.1538 18.8828C22.5055 18.8828 23.7544 18.789 24.9528 17.5982C26.1512 16.4067 26.3077 14.5136 26.3077 9.88275C26.3077 5.25191 26.1512 3.35877 24.9528 2.16731C23.7544 0.976538 22.5055 0.882751 13.1538 0.882751ZM13.1538 1.57506C22.8025 1.57506 23.6823 1.82572 24.3822 2.55402C25.0828 3.28233 25.6154 3.79044 25.6154 9.88275C25.6154 15.9751 25.0775 16.494 24.3755 17.1925C23.6596 17.9056 22.9604 18.1904 13.1538 18.1904C3.34731 18.1904 2.58349 17.8823 1.88356 17.1533C1.18295 16.425 0.692308 15.8968 0.692308 9.88275C0.692308 3.86867 1.22487 3.28233 1.92548 2.55402C2.6254 1.82572 4.11923 1.57506 13.1538 1.57506ZM10.9106 6.01556V13.7499L17.6376 9.85165L10.9106 6.01556Z" fill="black"/>
</svg>
